Patient4_TMGait_0pt4_03_right_39_EMG.mot
version=1
nRows=23
nColumns=33
inDegrees=no
endheader
time	1LAddLong	2LGlutMax	3LGlutMed	4LIliopsoas	5LSemiMemb	6LBicFemLong	7LRecFem	8LVastMed	9LVastLat	10LGasMed	11LTibAnt	12lTibPost	13LPeroneusLong	14LSol	15LExtDigLong	16LFlexDigLong	17RAddLong	18RGlutMax	19RGlutMed	20RIliopsoas	21RSemiMemb	22RBicFemLong	23RRecFem	24RVastMed	25RVastLat	26RGasMed	27RTibAnt	28RTibPost	29RPeroneusLong	30RSol	31RExtDigLong	32RFlexDigLong
51.05	-0.003662	0.14236	-0.021973	0.014496	0.046997	0.046082	0.011902	-0.008392	-0.009155	-0.24124	0.025635	-0.23193	0.091095	-0.13489	0.036469	0.82108	0.030212	-0.11444	-0.057983	0.075989	0.18356	-0.039063	0.13763	-0.039978	0.014496	-0.005493	-0.4422	-0.001373	-0.13107	0.009766	-0.004272	0.010834
51.051	-0.003967	0.15533	0.002747	0.039825	0.041046	0.019531	0.002289	-0.009613	0.016937	-0.13351	-0.048218	-0.056	0.052032	0.19699	0.050049	0.28519	-0.066833	-0.093842	0.005035	0.069122	0.18707	-0.032196	0.038452	-0.028839	-0.002747	-0.006714	-0.20706	0.001526	-0.024261	-0.005951	0.000153	-0.000916
51.052	0.001831	0.16892	-0.079193	0.020752	-0.007019	-0.011139	0.00885	-0.003204	0.043945	-0.053711	0.01358	0.010529	-0.062256	0.33066	-0.00824	-0.78339	-0.13809	-0.17609	0.4985	0.12314	0.19333	-0.014343	0.005188	-0.008087	0.006714	-0.003052	-0.24902	-0.002594	0.15335	0.031738	0.000916	-0.000458
51.053	0.006866	0.18707	-0.056	-0.002441	-0.055389	-0.017853	-0.018616	0.001831	0.032654	-0.054474	0.042572	-0.034485	-0.11658	0.20264	-0.033417	0.038757	-0.15976	-0.10117	0.50919	0.2327	0.18463	-0.029602	0.079651	-0.023804	0.00473	-0.001678	-0.25772	-0.000305	0.039825	0.004425	-0.002899	-0.001831
51.054	0.008698	0.21255	-0.044403	-0.006561	-0.019836	-0.034637	-0.035858	0.001526	0.008698	0.031738	0.033722	-0.008087	-0.20065	0.054016	-0.024719	-0.42236	-0.16724	-0.11749	0.19211	0.19959	0.17044	-0.007019	0.077057	-0.009003	-0.005035	0.000916	-0.37399	-0.001373	0.072021	-0.022736	0.000763	-0.009003
51.055	0.005646	0.22629	0.031586	0.004425	-0.014343	-0.021515	-0.025635	0.000153	0.023804	0.009918	-0.022888	0.007782	-0.121	-0.23086	-0.020142	0.10254	-0.12894	-0.12253	0.071259	0.097961	0.15793	0.013275	0.050354	-0.015564	-0.021057	-0.001068	-0.041962	0.000305	0.002747	-0.077515	-0.003967	-0.000305
51.056	0.009308	0.23193	0.000153	0.020599	0.031128	-0.034332	-0.049438	0.00351	0.037537	0.069885	-0.032654	-0.085297	0.025024	-0.14038	-0.016479	0.70786	-0.088501	-0.10086	0.10025	0.009766	0.17441	0.006409	0.067444	-0.025177	0.006561	-0.002899	0.23987	0.000153	-0.072937	-0.11597	-0.00061	-0.007782
51.057	0.002136	0.24933	0.037994	0.006104	0.045013	-0.036621	-0.01236	0.005035	0.011292	0.21759	-0.02182	0.077972	0.081329	-0.10681	-0.017242	0.51712	-0.063019	-0.12711	0.18997	-0.055847	0.15015	0.015411	0.1387	-0.033112	-0.010071	-0.007324	0.46204	0.000458	-0.070648	-0.14465	-0.003357	-0.009003
51.058	0.010681	0.24521	0.050659	0.010223	0.020905	0.005493	-0.01297	0.007019	-0.032959	0.24933	-0.002594	-0.15518	0.14679	-0.021362	0.0177	-0.50384	-0.031738	-0.11673	0.10056	-0.1059	0.16647	0.034027	0.097198	0.00473	-0.002136	-0.001526	0.38147	0.000458	0.024719	-0.16693	0.001068	-0.007477
51.059	0.00473	0.25146	0.11902	-0.019226	0.006409	0.039368	-0.010223	0.007172	-0.11673	0.26855	-0.005798	0.14832	0.16251	-0.2272	-0.002441	-0.15243	-0.016479	-0.092316	0.15243	-0.1091	0.15015	0.028992	0.055847	-0.012054	-0.001678	-0.00824	0.39734	-0.001678	-0.030975	-0.03418	-0.006256	-0.007324
51.06	-0.003662	0.28366	0.11871	-0.000153	0.022888	0.045624	-0.012207	0.005798	-0.07431	0.16403	-0.008087	0.045166	0.11276	-0.34592	-0.006561	-0.23956	-0.006256	-0.093689	0.11032	-0.070343	0.15015	0.027466	0.07431	-0.023041	0.001678	0.000153	0.16266	0	-0.084076	-0.061188	-0.005493	-0.003204
51.061	-0.002136	0.30212	0.09552	-0.00473	-0.010681	0.021362	-0.028992	0.002289	-0.040894	0.11154	-0.006866	0.11643	0.061493	-0.39429	0.000305	-0.16419	0.010376	-0.073853	0.061188	-0.018768	0.14969	0.041504	0.063019	-0.016327	0.01236	-0.000916	-0.21942	-0.000916	-0.056915	-0.080719	-0.00473	-0.009308
51.062	0.000305	0.29098	0.053558	0.001221	0.014954	-0.005188	-0.023193	0.002136	-0.014954	0.026245	0.013123	0.41122	-0.019073	-0.68207	0.007324	-0.071716	0.04303	-0.0737	-0.11917	0.079956	0.13916	0.046234	0.10681	-0.036163	0.011139	0.000305	-0.50995	-0.001373	-0.11871	0.016479	-0.001831	0.001373
51.063	-0.001526	0.29495	0.018768	-0.006714	0.034943	0.00885	-0.025787	-0.00473	-0.022583	-0.081482	0.014191	-0.35904	-0.063324	-0.7666	-0.011597	0.37094	0.069275	-0.099945	-0.10178	0.18326	0.13626	-0.003815	0.075073	-0.011902	0.016785	-0.003204	-0.32547	0.000916	-0.34042	0.095978	-0.001678	-0.001831
51.064	0.004883	0.31204	0.047607	0.010529	0.032196	-0.016785	-0.025635	0.002747	-0.027924	-0.06897	0.027161	-0.20081	-0.028687	-0.54459	0.008087	0.13794	0.061951	-0.054932	0.081024	0.12863	0.14664	-0.064087	0.11307	-0.03418	0.005646	0.000153	-0.076599	-0.005188	-0.18814	0.076599	-0.005493	0.001678
51.065	0.00824	0.35446	0.066071	0.000305	0.062714	-0.053406	-0.006561	0.00351	-0.018921	-0.050964	0.016327	0.019836	0.080109	-0.34561	0.038452	0.032959	0.066376	-0.070648	0.092621	-0.003815	0.17609	-0.089417	0.13794	-0.075531	-0.011444	-0.000153	0.072479	-0.000458	0.079651	0.008087	-0.001373	-0.001526
51.066	0.006104	0.34088	0.089569	0.014954	0.031433	-0.053406	-0.007019	0.005951	-0.015717	0.10834	0.014191	-0.032654	0.049591	-0.051422	0.027771	0.14023	0.041656	-0.10056	0.23346	-0.098572	0.14938	-0.087585	0.14175	-0.046082	-0.014648	0.000305	0.14908	0.00473	-0.044403	-0.022888	-0.004272	-0.005035
51.067	0.009766	0.34958	0.085907	0.018768	-0.019379	-0.067139	-0.036469	0.003815	-0.012054	0.13016	0.015564	-0.050201	-0.023651	0.098267	0.012054	0.047913	0.041809	-0.071106	0.23697	-0.1416	0.12512	-0.13092	0.12054	-0.050964	-0.028534	-0.009766	0.168	0.010529	-0.060272	-0.027618	-0.004883	-0.008545
51.068	0.012512	0.34851	-0.004425	0.028687	-0.004578	-0.072937	-0.017853	0.006561	-0.015717	-0.004578	0.016174	-0.084534	-0.085449	0.1033	0.001221	-0.45822	0.11231	-0.06897	0.11917	-0.068817	0.08667	-0.13718	0.14114	-0.0383	-0.042725	0.003204	0.43945	0.002899	0.19012	-0.063782	-0.003357	-0.001678
51.069	0.008392	0.36941	-0.058899	-0.002136	0.033875	-0.041656	0.075073	-0.002899	-0.039063	-0.11673	0.008392	-0.074768	-0.065613	0.12314	0.026703	-0.15518	0.18097	-0.10757	0.057983	0.083313	0.059204	-0.097961	0.12817	-0.059357	-0.036621	-0.001526	-0.46997	-0.001068	0.71137	-0.11154	-0.001221	-0.004883
51.07	0.005035	0.37628	-0.051117	0.003662	0.007477	-0.02533	0.1059	-0.005951	-0.063019	0.097656	-0.000458	-0.081482	-0.024261	0.2977	0.009918	-0.52948	0.14877	-0.097504	0.067291	0.30334	0.024109	-0.086365	0.17822	-0.12985	-0.058594	-0.009766	-0.29266	0.001068	0.75684	-0.029297	-0.00412	-0.004272
51.071	0.00885	0.33691	-0.086212	0.002136	0.005035	-0.036469	0.008698	-0.010376	-0.071411	0.05722	-0.002594	0.020294	-0.084686	0.35202	-0.016937	0.27573	0.071259	-0.062408	0.028839	0.24078	0.00473	-0.072327	0.1358	-0.14862	-0.04776	-0.013885	0.014191	-0.000916	0.48828	0.027008	0	-0.011292
51.072	-0.000305	0.31372	-0.11978	-0.000763	0.027924	-0.037994	-0.038757	-0.001984	0.010376	0.10956	-0.00824	-0.030975	-0.032654	0.12909	-0.031281	0.33783	-0.043488	-0.060577	0.31021	0.053711	0.016174	-0.045776	0.14969	-0.10788	-0.052948	-0.013275	-0.086517	0.000153	0.071259	0.006256	-0.010071	-0.005798
